# AST/ASF file generated using VICON BodyLanguage
# -----------------------------------------------
:version 1.10
:name VICON
:units
  mass 1.0
  length 0.45
  angle deg
:documentation
   .ast/.asf automatically generated from VICON data using
   VICON BodyBuilder and BodyLanguage model FoxedUp or BRILLIANT.MOD
:root
   order TX TY TZ RX RY RZ
   axis XYZ
   position 0 0 0  
   orientation 0 0 0 
:bonedata
  begin
     id 1 
     name lhipjoint
     direction 0.70531 -0.63749 0.310071 
     length 2.59589 
     axis 0 0 0  XYZ
  end
  begin
     id 2 
     name lfemur
     direction 0.34202 -0.939693 0  
     length 6.19797  
     axis 0 0 20  XYZ
    dof rx ry rz
    limits (-160.0 20.0)
           (-70.0 70.0)
           (-60.0 70.0)
  end
  begin
     id 3 
     name ltibia
     direction 0.34202 -0.939693 0   
     length 7.80054   
     axis 0 0 20   XYZ
    dof rx
    limits (-10.0 170.0)
  end
  begin
     id 4 
     name lfoot
     direction 0.0828572 -0.227648 0.970212   
     length 1.88124   
     axis -90 7.62852e-016 20   XYZ
    dof rx rz
    limits (-45.0 90.0)
           (-70.0 20.0)
  end
  begin
     id 5 
     name ltoes
     direction 1.53544e-011 -4.219e-011 1   
     length 0.948015   
     axis -90 7.62852e-016 20   XYZ
    dof rx
    limits (-90.0 20.0)
  end
  begin
     id 6 
     name rhipjoint
     direction -0.730062 -0.614543 0.29891   
     length 2.69282  
     axis 0 0 0  XYZ 
  end
  begin
     id 7 
     name rfemur
     direction -0.34202 -0.939693 0   
     length 5.86298   
     axis 0 0 -20   XYZ
    dof rx ry rz
    limits (-160.0 20.0)
           (-70.0 70.0)
           (-70.0 60.0)
  end
  begin
     id 8 
     name rtibia
     direction -0.34202 -0.939693 0   
     length 7.72374   
     axis 0 0 -20   XYZ
    dof rx
    limits (-10.0 170.0)
 end
 begin
     id 9 
     name rfoot
     direction -0.0967421 -0.265797 0.959163   
     length 2.02368  
     axis -90 -7.62852e-016 -20   XYZ
    dof rx rz
    limits (-45.0 90.0)
           (-20.0 70.0)
  end
  begin
     id 10 
     name rtoes
     direction -1.53524e-011 -4.21768e-011 1   
     length 1.01373   
     axis -90 -7.62852e-016 -20   XYZ
    dof rx
    limits (-90.0 20.0)
  end
  begin
     id 11 
     name lowerback
     direction 0.00561702 0.992801 -0.119643   
     length 2.02816   
     axis 0 0 0   XYZ
    dof rx ry rz
    limits (-20.0 45.0)
           (-30.0 30.0)
           (-30.0 30.0)
  end
  begin
     id 12 
     name upperback
     direction 0.00155544 0.995735 -0.0922509   
     length 2.02265   
     axis 0 0 0   XYZ
    dof rx ry rz
    limits (-20.0 45.0)
           (-30.0 30.0)
           (-30.0 30.0)
  end
  begin
     id 13 
     name thorax
     direction -0.000937535 0.999317 -0.0369292   
     length 2.04823   
     axis 0 0 0   XYZ
    dof rx ry rz
    limits (-20.0 45.0)
           (-30.0 30.0)
           (-30.0 30.0)
  end
  begin
     id 14 
     name lowerneck
     direction -0.0813151 0.981659 0.172436   
     length 1.8875   
     axis 0 0 0   XYZ
    dof rx ry rz
    limits (-20.0 45.0)
           (-30.0 30.0)
           (-30.0 30.0)
  end
  begin
     id 15 
     name upperneck
     direction 0.119359 0.955672 -0.269157   
     length 1.92801   
     axis 0 0 0   XYZ
    dof rx ry rz
    limits (-20.0 45.0)
           (-30.0 30.0)
           (-30.0 30.0)
  end
  begin
     id 16
     name head
     direction 0.0421007 0.992672 -0.113268  
     length 1.95809  
     axis 0 0 0   XYZ
    dof rx ry rz
    limits (-20.0 45.0)
           (-30.0 30.0)
           (-30.0 30.0)
  end
  begin
     id 17 
     name lclavicle
     direction 0.944093 0.32865 -0.0260136  
     length 3.84992  
     axis 0 0 0   XYZ
    dof ry rz
    limits (-20.0 10.0)
           (0.0 20.0)
  end
  begin
     id 18 
     name lhumerus
     direction 1 -4.48979e-011 -1.27712e-029   
     length 5.53593   
     axis 180 -30 -90   XYZ
    dof rx ry rz
    limits (-60.0 90.0)
           (-90.0 90.0)
           (-90.0 90.0)
  end
  begin
     id 19
     name lradius
     direction 1 -4.48966e-011 1.00051e-028   
     length 3.13345   
     axis 180 -30 -90   XYZ
    dof rx
    limits (-10.0 170.0)
  end
  begin
     id 20
     name lwrist
     direction 1 -4.4896e-011 2.56952e-028   
     length 1.56673   
     axis -5.12785e-016 90 90   XYZ
    dof ry
    limits (-180.0 0.0)
 end
  begin
     id 21 
     name lhand
     direction 1 -4.48934e-011 5.13905e-028   
     length 0.713374   
     axis -3.27915e-016 90 90   XYZ
    dof rx rz
    limits (-90.0 90.0)
           (-45.0 45.0)
  end
  begin
     id 22 
     name lfingers
     direction 1 -4.48973e-011 1.02781e-027   
     length 0.575141   
     axis -6.5583e-016 90 90   XYZ
    dof rx
    limits (0.0 90.0)
  end
  begin
     id 23
     name lthumb
     direction 0.707107 -6.34883e-011 0.707107   
     length 0.82579   
     axis -90 45 2.85299e-015   XYZ
    dof rx rz
    limits (-45.0 45.0)
           (-45.0 45.0)
  end
  begin
     id 24 
     name rclavicle
     direction -0.936895 0.34884 0.0232243   
     length 3.53304  
     axis 0 0 0   XYZ 
    dof ry rz
    limits (-10.0 20.0)
           (-20.0 0.0)
  end
  begin
     id 25 
     name rhumerus
     direction -1 -4.48965e-011 1.05514e-027  
     length 5.4685   
     axis 180 30 90   XYZ
    dof rx ry rz
    limits (-90.0 60.0)
           (-90.0 90.0)
           (-90.0 90.0)
  end
  begin
     id 26 
     name rradius
     direction -1 -4.48964e-011 -1.1079e-027   
     length 3.22411   
     axis 180 30 90   XYZ
    dof rx
    limits (-10.0 170.0)
  end
  begin
     id 27 
     name rwrist
     direction -1 -4.48973e-011 2.56952e-028   
     length 1.61206   
     axis -5.12785e-016 -90 -90   XYZ
    dof ry
    limits (-180.0 0.0)
  end
  begin
     id 28
     name rhand
     direction -1 -4.48957e-011 5.13905e-028   
     length 0.74528   
     axis -3.27915e-016 -90 -90   XYZ
    dof rx rz
    limits (-90.0 90.0)
           (-45.0 45.0)
  end
  begin
     id 29
     name rfingers
     direction -1 -4.4901e-011 1.02781e-027   
     length 0.600864   
     axis -6.5583e-016 -90 -90   XYZ
    dof rx
    limits (0.0 90.0)
  end
  begin
     id 30
     name rthumb
     direction -0.707107 -6.34972e-011 0.707107   
     length 0.862724   
     axis -90 -45 -2.85299e-015   XYZ
    dof rx rz
    limits (-45.0 45.0)
           (-45.0 45.0)
  end
:hierarchy
  begin
    root lhipjoint rhipjoint lowerback
    lhipjoint lfemur
    lfemur ltibia
    ltibia lfoot
    lfoot ltoes
    rhipjoint rfemur
    rfemur rtibia
    rtibia rfoot
    rfoot rtoes
    lowerback upperback
    upperback thorax
    thorax lowerneck lclavicle rclavicle
    lowerneck upperneck
    upperneck head
    lclavicle lhumerus
    lhumerus lradius
    lradius lwrist
    lwrist lhand lthumb
    lhand lfingers
    rclavicle rhumerus
    rhumerus rradius
    rradius rwrist
    rwrist rhand rthumb
    rhand rfingers
  end

#!OML:ASF G:\Work\Work\Patient Classification 1\Liu\Session 1\Liu.ASF
:FULLY-SPECIFIED
:DEGREES
388
root 10.3054 15.8821 27.7051 3.35719 8.21326 2.99227
lowerback -0.855281 -3.98069 -2.17472
upperback 0.398429 -5.27504 -0.62182
thorax 1.02352 -2.64784 0.477642
lowerneck -22.9963 -4.28513 -11.446
upperneck 32.4716 -5.66497 10.6457
head 16.1328 -2.30275 5.47986
rclavicle -3.8954e-014 -1.84373e-014
rhumerus -52.8937 16.1943 -94.5756
rradius 39.1397
rwrist -12.6686
rhand -14.8307 21.6129
rfingers 7.12502
rthumb 11.328 -8.06114
lclavicle -3.8954e-014 -1.84373e-014
lhumerus -21.6927 -10.3471 81.4269
lradius 40.303
lwrist 10.337
lhand -18.7001 29.7059
lfingers 7.12502
lthumb 7.59464 59.5496
rfemur -32.4474 -1.1476 20.0708
rtibia 28.0164
rfoot 0.503891 -5.49933
rtoes -14.9905
lfemur 17.3266 4.70125 -20.2221
ltibia 30.0759
lfoot 11.4023 10.0854
ltoes 17.7227
389
root 10.2916 15.9147 27.961 3.04583 7.85685 2.02751
lowerback -0.406235 -3.81994 -1.27716
upperback 0.302145 -5.08318 -0.318436
thorax 0.618337 -2.54563 0.334923
lowerneck -23.0204 -4.28007 -11.4824
upperneck 32.5257 -5.67151 10.7178
head 16.171 -2.30061 5.52225
rclavicle -4.24421e-014 -3.47873e-015
rhumerus -52.7015 16.0866 -94.2493
rradius 38.6251
rwrist -12.6181
rhand -15.0647 21.8106
rfingers 7.12502
rthumb 11.1023 -7.87577
lclavicle -4.24421e-014 -3.47873e-015
lhumerus -22.298 -10.1811 81.8598
lradius 40.0343
lwrist 11.0346
lhand -19.6535 28.9041
lfingers 7.12502
lthumb 6.67435 58.7789
rfemur -30.9198 -0.865597 21.4104
rtibia 27.5336
rfoot -0.0628709 -5.16377
rtoes -14.8725
lfemur 14.4242 5.4028 -18.9691
ltibia 35.9092
lfoot 11.6301 12.9285
ltoes 19.9463
390
root 10.2762 15.9448 28.2234 2.71584 7.53708 0.792687
lowerback -0.242299 -3.65161 -0.155054
upperback 0.429223 -4.86836 0.0738017
thorax 0.594138 -2.43473 0.124389
lowerneck -23.233 -4.48674 -11.7234
upperneck 32.4846 -5.90013 10.8389
head 16.256 -2.40478 5.57315
rclavicle -1.48281e-014 -6.11263e-015
rhumerus -52.2081 15.9396 -93.7847
rradius 38.3683
rwrist -12.6785
rhand -15.3162 22.1381
rfingers 7.12502
rthumb 10.8597 -7.56108
lclavicle -1.48281e-014 -6.11263e-015
lhumerus -22.3303 -9.41577 81.9878
lradius 39.7365
lwrist 9.07528
lhand -18.1768 30.8239
lfingers 7.12502
lthumb 8.09967 60.6487
rfemur -29.2356 -0.404745 22.9789
rtibia 26.7842
rfoot -0.769774 -5.07379
rtoes -15.1043
lfemur 11.6731 6.03836 -17.4354
ltibia 41.3628
lfoot 10.2315 16.7695
ltoes 26.4037
391
root 10.2711 15.9806 28.4923 2.36417 7.43636 -0.492272
lowerback -0.218313 -3.56202 1.14232
upperback 0.523074 -4.7578 0.433582
thorax 0.601707 -2.37394 -0.226405
lowerneck -22.782 -4.63443 -11.9693
upperneck 32.1885 -6.08949 10.9401
head 16.0518 -2.5071 5.60005
rclavicle -6.95746e-015 8.49804e-015
rhumerus -51.9676 15.5947 -93.2761
rradius 38.392
rwrist -12.4882
rhand -15.1473 21.4576
rfingers 7.12502
rthumb 11.0227 -8.23303
lclavicle -6.95746e-015 8.49804e-015
lhumerus -22.6707 -8.99564 82.2422
lradius 39.4774
lwrist 8.11248
lhand -17.5833 32.3445
lfingers 7.12502
lthumb 8.67244 62.1463
rfemur -27.278 -0.638745 24.6232
rtibia 25.7891
rfoot -1.49696 -4.46919
rtoes -14.1706
lfemur 9.05759 6.48233 -15.9157
ltibia 46.4726
lfoot 9.91498 18.3602
ltoes 23.2461
392
root 10.2647 16.0181 28.7527 2.11227 7.47881 -1.56927
lowerback -0.218875 -3.494 2.18211
upperback 0.631653 -4.67597 0.748408
thorax 0.657944 -2.32709 -0.48357
lowerneck -22.4398 -4.69157 -12.0451
upperneck 31.8426 -6.1786 10.9992
head 15.8249 -2.54785 5.59606
rclavicle -4.11453e-014 -7.55382e-015
rhumerus -51.5632 15.3715 -92.8041
rradius 38.2849
rwrist -12.5271
rhand -14.4477 19.6893
rfingers 7.12502
rthumb 11.6974 -9.96417
lclavicle -4.11453e-014 -7.55382e-015
lhumerus -23.0382 -8.585 82.5465
lradius 39.0809
lwrist 7.37928
lhand -17.5855 31.8025
lfingers 7.12502
lthumb 8.67035 61.6044
rfemur -25.3388 -1.15653 26.0325
rtibia 24.6584
rfoot -2.04828 -3.79772
rtoes -13.5786
lfemur 6.33148 6.73229 -14.6982
ltibia 51.2442
lfoot 10.3388 18.1365
ltoes 15.9588
393
root 10.2491 16.0481 29.0045 2.03525 7.65072 -2.47165
lowerback -0.39496 -3.42676 2.91418
upperback 0.795965 -4.60349 1.05843
thorax 0.895252 -2.28279 -0.589841
lowerneck -22.4956 -4.87708 -12.2198
upperneck 31.6006 -6.40262 11.1204
head 15.7739 -2.64142 5.62068
rclavicle -6.19711e-014 1.98785e-015
rhumerus -50.9248 15.3675 -92.4369
rradius 38.0643
rwrist -13.0091
rhand -13.955 18.3201
rfingers 7.12502
rthumb 12.1725 -11.3057
lclavicle -6.19711e-014 1.98785e-015
lhumerus -23.1902 -8.52299 82.9894
lradius 38.3937
lwrist 7.96689
lhand -18.733 28.3101
lfingers 7.12502
lthumb 7.56285 58.1549
rfemur -23.6266 -1.36451 27.2129
rtibia 23.4909
rfoot -2.53539 -3.61263
rtoes -14.2237
lfemur 3.34138 6.84379 -13.698
ltibia 55.7114
lfoot 8.6734 18.2677
ltoes 16.8514
394
root 10.2301 16.0818 29.2558 2.15416 7.87455 -3.24813
lowerback -0.688203 -3.38411 3.44124
upperback 0.789061 -4.56753 1.37726
thorax 1.03899 -2.25959 -0.574556
lowerneck -22.3336 -5.08749 -12.4289
upperneck 31.4057 -6.64685 11.1457
head 15.6966 -2.76753 5.60559
rclavicle -7.0786e-014 6.16232e-015
rhumerus -50.6753 15.5182 -92.2195
rradius 38.1049
rwrist -13.7685
rhand -14.1189 18.1041
rfingers 7.12502
rthumb 12.0144 -11.5311
lclavicle -7.0786e-014 6.16232e-015
lhumerus -23.2929 -8.20742 83.3326
lradius 37.6486
lwrist 7.09231
lhand -18.1834 28.6166
lfingers 7.12502
lthumb 8.09331 58.4416
rfemur -22.1586 -1.30243 28.2191
rtibia 22.3994
rfoot -3.23302 -3.7463
rtoes -14.5727
lfemur 0.139301 6.93026 -12.9554
ltibia 59.886
lfoot 7.18138 17.1493
ltoes 14.6848
395
root 10.2225 16.1255 29.5035 2.34667 8.11008 -3.67744
lowerback -0.840846 -3.34158 3.74134
upperback 0.674773 -4.52042 1.60224
thorax 1.00411 -2.23593 -0.515733
lowerneck -22.2757 -5.17925 -12.3085
upperneck 31.3595 -6.72019 10.8323
head 15.6521 -2.82575 5.42405
rclavicle 6.30334e-014 7.85199e-015
rhumerus -50.5548 15.6936 -91.9881
rradius 38.1589
rwrist -14.6009
rhand -14.6925 18.6291
rfingers 7.12502
rthumb 11.4613 -11.0376
lclavicle 6.30334e-014 7.85199e-015
lhumerus -23.7319 -8.41798 84.0054
lradius 37.0455
lwrist 7.87046
lhand -19.5018 27.803
lfingers 7.12502
lthumb 6.82079 57.6731
rfemur -20.7674 -1.57731 28.8202
rtibia 21.3523
rfoot -3.88223 -3.65148
rtoes -13.9096
lfemur -2.98738 6.76505 -12.8754
ltibia 63.605
lfoot 5.6466 15.5514
ltoes 11.7003
396
root 10.2219 16.1655 29.744 2.51726 8.31802 -3.78186
lowerback -0.9085 -3.29406 3.75787
upperback 0.583965 -4.45888 1.73749
thorax 0.96045 -2.20707 -0.387326
lowerneck -22.3128 -5.27112 -12.2325
upperneck 31.3987 -6.82972 10.6762
head 15.6863 -2.8824 5.32022
rclavicle 1.39274e-014 -1.86858e-014
rhumerus -50.2226 15.7866 -91.5771
rradius 38.1025
rwrist -14.8156
rhand -14.9148 18.728
rfingers 7.12502
rthumb 11.2469 -10.9505
lclavicle 1.39274e-014 -1.86858e-014
lhumerus -24.4676 -7.62144 84.3434
lradius 37.3791
lwrist 5.67997
lhand -17.7237 30.7034
lfingers 7.12502
lthumb 8.53697 60.5108
rfemur -19.4619 -2.16882 29.0723
rtibia 20.4555
rfoot -4.35276 -3.20223
rtoes -13.9393
lfemur -5.96356 6.40795 -13.2995
ltibia 66.7616
lfoot 3.47086 14.5874
ltoes 13.8534
397
root 10.2093 16.1939 29.9793 2.77346 7.96665 -3.97807
lowerback -1.01571 -3.04242 3.72523
upperback 0.397707 -4.12328 1.8742
thorax 0.852708 -2.04353 -0.226304
lowerneck -21.9247 -5.42774 -12.5042
upperneck 31.3567 -7.13005 11.0177
head 15.6595 -3.00587 5.45763
rclavicle 1.69837e-014 -2.24627e-014
rhumerus -50.0027 15.6707 -91.0919
rradius 38.1413
rwrist -14.2847
rhand -14.5245 18.3228
rfingers 7.12502
rthumb 11.6233 -11.3348
lclavicle 1.69837e-014 -2.24627e-014
lhumerus -25.318 -7.20261 84.6896
lradius 37.4741
lwrist 4.27515
lhand -16.4966 32.1976
lfingers 7.12502
lthumb 9.72103 61.9532
rfemur -18.4843 -2.21301 29.4637
rtibia 19.8405
rfoot -4.69695 -2.63696
rtoes -14.7595
lfemur -9.00703 6.60928 -13.563
ltibia 69.4914
lfoot 2.0085 13.6522
ltoes 14.3312
398
root 10.1988 16.2235 30.2176 3.00528 7.80823 -3.73453
lowerback -1.06458 -2.81953 3.37223
upperback 0.256226 -3.81864 1.80914
thorax 0.762385 -1.89583 -0.0922926
lowerneck -21.422 -5.63291 -12.7758
upperneck 31.2225 -7.52722 11.4009
head 15.5845 -3.16742 5.58869
rclavicle -1.07841e-014 -7.7526e-015
rhumerus -49.758 15.5296 -90.739
rradius 38.2073
rwrist -13.9916
rhand -14.2886 18.118
rfingers 7.12502
rthumb 11.8508 -11.5267
lclavicle -1.07841e-014 -7.7526e-015
lhumerus -25.5708 -7.6298 85.1857
lradius 36.461
lwrist 4.67806
lhand -17.2288 31.0054
lfingers 7.12502
lthumb 9.01455 60.7928
rfemur -17.4574 -2.37064 29.35
rtibia 19.396
rfoot -5.28998 -2.2207
rtoes -15.4758
lfemur -11.963 6.49965 -14.4056
ltibia 71.7464
lfoot 1.07385 12.8296
ltoes 10.3598
399
root 10.1942 16.2508 30.4511 3.25506 7.70283 -3.27604
lowerback -1.17783 -2.62258 2.91042
upperback 0.262466 -3.5541 1.64518
thorax 0.856323 -1.76466 -0.00679747
lowerneck -21.1697 -5.67796 -12.7179
upperneck 31.0121 -7.6779 11.5355
head 15.4578 -3.20961 5.59477
rclavicle 5.89148e-014 -1.08338e-014
rhumerus -49.2599 15.4609 -90.4617
rradius 38.3609
rwrist -13.9862
rhand -14.3938 17.9206
rfingers 7.12502
rthumb 11.7494 -11.7299
lclavicle 5.89148e-014 -1.08338e-014
lhumerus -25.5375 -8.22473 85.6101
lradius 35.5325
lwrist 5.03569
lhand -17.5371 30.605
lfingers 7.12502
lthumb 8.71708 60.405
rfemur -16.4719 -2.68979 28.9985
rtibia 19.0703
rfoot -6.01651 -1.78058
rtoes -15.7642
lfemur -14.7866 6.29989 -15.5872
ltibia 73.5854
lfoot 0.0262712 12.1963
ltoes 5.01645
400
root 10.1819 16.2637 30.6742 3.36981 7.4376 -3.38735
lowerback -1.21518 -2.40324 2.88031
upperback 0.332944 -3.26533 1.66273
thorax 0.958206 -1.61899 0.0284404
lowerneck -21.2807 -5.5143 -12.4349
upperneck 30.9715 -7.50128 11.4862
head 15.4149 -3.10168 5.55585
rclavicle 3.49364e-014 -2.85256e-014
rhumerus -48.6767 15.4858 -90.1906
rradius 38.5356
rwrist -13.914
rhand -14.338 17.5795
rfingers 7.12502
rthumb 11.8032 -12.0679
lclavicle 3.49364e-014 -2.85256e-014
lhumerus -25.7646 -8.32348 85.819
lradius 35.2078
lwrist 4.2459
lhand -16.6562 31.0816
lfingers 7.12502
lthumb 9.5671 60.8444
rfemur -15.5498 -2.41255 29.2707
rtibia 18.9317
rfoot -6.75877 -1.80447
rtoes -15.0227
lfemur -17.5142 6.43904 -15.9762
ltibia 75.1863
lfoot -0.974068 11.5927
ltoes 2.19934
